<?xml version="1.0" encoding="utf-8"?>
<!-- Generator: Adobe Illustrator 23.1.1, SVG Export Plug-In . SVG Version: 6.00 Build 0)  -->
<svg version="1.1" id="Layer_1" xmlns="http://www.w3.org/2000/svg" xmlns:xlink="http://www.w3.org/1999/xlink" x="0px" y="0px"
	 viewBox="0 0 617.5 153.5" style="enable-background:new 0 0 617.5 153.5;" xml:space="preserve">
<style type="text/css">
	.st0{fill:#244B5A;}
	.st1{fill:#85AF9A;}
</style>
<g>
	<path class="st0" d="M42.71,94.44h-4.24V58.57H26.05V54.9h29.09v2.54l-1.13,1.13h-11.3V94.44z"/>
	<path class="st0" d="M98.61,94.44h-4.24V76.08l-19.49,0v18.36h-4.24V54.9h4.24v17.51h19.49V54.9h4.24V94.44z"/>
	<path class="st0" d="M121.96,94.44V54.9h4.24v39.54H121.96z"/>
	<path class="st0" d="M153.5,61.96h-0.28l0.56,7.34v25.14h-4.24V54.9h4.52l19.21,32.48h0.28l-0.56-7.34V54.9h4.24v39.54h-4.52
		L153.5,61.96z"/>
	<path class="st0" d="M204.81,72.41h9.32l9.6-17.51h4.24v1.69L217.52,74.1l11.01,18.64v1.7h-4.24l-10.17-18.36h-9.32v18.36h-4.24
		V54.9h4.24V72.41z"/>
</g>
<g>
	<path class="st0" d="M390.03,64.22c0-5.37,3.96-9.32,9.89-9.32h15.53v2.54l-1.13,1.13h-14.4c-3.11,0-5.65,2.54-5.65,5.65v1.69
		c0,3.11,1.7,4.75,4.52,5.37l10.45,2.26c3.95,0.85,7.06,3.95,7.06,9.04v2.54c0,5.37-3.96,9.32-9.88,9.32h-16.95v-3.67h16.95
		c3.11,0,5.65-2.54,5.65-5.65v-2.54c0-3.11-1.69-4.75-4.52-5.37l-10.45-2.26c-3.96-0.85-7.06-3.95-7.06-9.04V64.22z"/>
	<path class="st0" d="M447.64,94.44h-4.24V58.57h-12.42V54.9h29.09v2.54l-1.13,1.13h-11.3V94.44z"/>
	<path class="st0" d="M475.19,94.44h-4.24v-1.7l13.84-37.84h4.8l13.84,37.84v1.7h-4.24l-3.39-10.17h-17.23L475.19,94.44z
		 M487.33,59.98h-0.28l-7.06,20.62h14.4L487.33,59.98z"/>
	<path class="st0" d="M546.07,94.44h-16.38c-5.93,0-9.88-3.95-9.88-9.32v-20.9c0-5.37,3.95-9.32,9.88-9.32h16.38v2.54l-1.13,1.13
		h-15.25c-3.11,0-5.65,2.54-5.65,5.65v20.9c0,3.11,2.54,5.65,5.65,5.65h16.38V94.44z"/>
	<path class="st0" d="M568.23,72.41h9.32l9.6-17.51h4.24v1.7L580.94,74.1l11.01,18.64v1.7h-4.23l-10.17-18.36h-9.32v18.36h-4.23
		V54.9h4.23V72.41z"/>
</g>
<g>
	<path class="st1" d="M286.79,27.74c1.93,0,3.58-1.2,4.25-2.89h72.64v5.16h-39.85c-0.67-1.69-2.32-2.89-4.25-2.89
		c-2.52,0-4.57,2.05-4.57,4.57c0,2.52,2.05,4.57,4.57,4.57c1.93,0,3.58-1.2,4.25-2.89h41.52c0.93,0,1.68-0.75,1.68-1.68v-8.52
		c0-0.93-0.75-1.68-1.68-1.68h-74.32c-0.67-1.69-2.32-2.89-4.25-2.89c-2.52,0-4.57,2.05-4.57,4.57
		C282.22,25.69,284.27,27.74,286.79,27.74z M319.59,33.57c-1.04,0-1.88-0.84-1.88-1.88c0-1.04,0.84-1.88,1.88-1.88
		c1.04,0,1.88,0.84,1.88,1.88C321.46,32.73,320.62,33.57,319.59,33.57z M286.79,21.29c1.04,0,1.88,0.84,1.88,1.88
		c0,1.04-0.84,1.88-1.88,1.88c-1.04,0-1.88-0.84-1.88-1.88C284.91,22.14,285.75,21.29,286.79,21.29z"/>
	<path class="st1" d="M358.21,41.88c0.67,1.69,2.32,2.9,4.25,2.9c2.52,0,4.57-2.05,4.57-4.57c0-2.52-2.05-4.57-4.57-4.57
		c-1.93,0-3.58,1.2-4.25,2.89h-38.63c-0.93,0-1.68,0.75-1.68,1.68v51.71c-1.69,0.67-2.89,2.32-2.89,4.25c0,2.52,2.05,4.57,4.57,4.57
		c2.52,0,4.57-2.05,4.57-4.57c0-1.93-1.2-3.58-2.89-4.25v-7.05h14.09c6.23,0,11.3,5.07,11.3,11.3c0,6.23-5.07,11.3-11.3,11.3h-22.6
		V31.69c0-0.93-0.75-1.68-1.68-1.68h-24.28c-12.77,0-23.16,10.39-23.16,23.16c0,12.77,10.39,23.16,23.16,23.16h14.09v5.17h-14.09
		c-14.22,0-26.03-10.54-28.02-24.22c1.53-0.74,2.59-2.3,2.59-4.11c0-2.52-2.05-4.57-4.57-4.57c-2.52,0-4.57,2.05-4.57,4.57
		c0,2.04,1.35,3.77,3.2,4.36c2.13,15.41,15.39,27.32,31.38,27.32h14.09v22.59h-24.84c-0.67-1.69-2.32-2.89-4.25-2.89
		c-2.52,0-4.57,2.05-4.57,4.57c0,2.52,2.05,4.57,4.57,4.57c1.93,0,3.58-1.2,4.25-2.89h24.84v5.16h-39.84
		c-0.67-1.69-2.32-2.89-4.25-2.89c-2.52,0-4.57,2.05-4.57,4.57c0,2.52,2.05,4.57,4.57,4.57c1.93,0,3.58-1.2,4.25-2.89h39.84v5.16
		h-9.84c-0.67-1.69-2.32-2.89-4.25-2.89c-2.52,0-4.57,2.05-4.57,4.57c0,2.52,2.05,4.57,4.57,4.57c1.93,0,3.58-1.2,4.25-2.89h9.84
		v7.84c0,0.93,0.75,1.68,1.68,1.68h8.52c0.93,0,1.68-0.75,1.68-1.68v-7.83h22.6c17.47,0,31.68-14.21,31.68-31.68
		c0-17.47-14.21-31.68-31.68-31.68h-14.09v-22.6H358.21z M362.46,38.33c1.04,0,1.88,0.84,1.88,1.88c0,1.04-0.84,1.88-1.88,1.88
		c-1.04,0-1.88-0.84-1.88-1.88C360.58,39.17,361.43,38.33,362.46,38.33z M256.78,51.3c1.04,0,1.88,0.84,1.88,1.88
		c0,1.04-0.84,1.88-1.88,1.88c-1.04,0-1.88-0.84-1.88-1.88C254.9,52.14,255.75,51.3,256.78,51.3z M271.78,111
		c-1.04,0-1.88-0.84-1.88-1.88c0-1.04,0.84-1.88,1.88-1.88c1.04,0,1.88,0.84,1.88,1.88C273.66,110.16,272.82,111,271.78,111z
		 M256.78,119.52c-1.04,0-1.88-0.84-1.88-1.88c0-1.04,0.84-1.88,1.88-1.88c1.04,0,1.88,0.84,1.88,1.88
		C258.66,118.68,257.82,119.52,256.78,119.52z M286.79,128.03c-1.04,0-1.88-0.84-1.88-1.88c0-1.04,0.84-1.88,1.88-1.88
		c1.04,0,1.88,0.84,1.88,1.88C288.67,127.19,287.82,128.03,286.79,128.03z M300.87,64.47h-14.09c-6.23,0-11.3-5.07-11.3-11.3
		c0-6.23,5.07-11.3,11.3-11.3l14.09,0V64.47z M309.39,133.99h-5.17V40.2c0-0.93-0.75-1.68-1.68-1.68l-15.76,0
		c-8.08,0-14.65,6.57-14.65,14.65c0,8.08,6.57,14.65,14.65,14.65h14.09v5.16h-14.09c-10.92,0-19.81-8.89-19.81-19.81
		c0-10.92,8.89-19.81,19.81-19.81h22.61V133.99z M319.59,98.03c-1.04,0-1.88-0.84-1.88-1.88c0-1.04,0.84-1.88,1.88-1.88
		c1.04,0,1.88,0.84,1.88,1.88C321.46,97.19,320.62,98.03,319.59,98.03z M335.35,110.8c8.08,0,14.65-6.57,14.65-14.65
		s-6.57-14.65-14.65-14.65h-14.09v-5.16h14.09c9.53,0,17.51,6.77,19.38,15.76c-1.46,0.76-2.46,2.29-2.46,4.05
		c0,1.76,1,3.29,2.46,4.05c-1.88,8.99-9.85,15.76-19.38,15.76h-22.6v-5.16H335.35z M356.84,98.03c-1.04,0-1.88-0.84-1.88-1.88
		c0-1.04,0.84-1.88,1.88-1.88c1.04,0,1.88,0.84,1.88,1.88C358.72,97.19,357.88,98.03,356.84,98.03z M335.35,67.83
		c15.62,0,28.33,12.71,28.33,28.33c0,15.62-12.71,28.33-28.33,28.33h-22.6v-5.16h22.6c11.27,0,20.67-8.09,22.73-18.77
		c1.92-0.54,3.33-2.3,3.33-4.39c0-2.09-1.41-3.85-3.33-4.39c-2.06-10.68-11.46-18.77-22.73-18.77h-14.09v-5.16H335.35z"/>
</g>
</svg>
