<svg id="Layer_1" data-name="Layer 1" xmlns="http://www.w3.org/2000/svg" viewBox="0 0 146.5 151.51"><defs><style>.cls-1{fill:#87b09a;}</style></defs><title>ts-monogram-green</title><path class="cls-1" d="M79.48,44.38a5.84,5.84,0,0,0,5.42-3.69H177.6v6.59H126.75a5.83,5.83,0,1,0,0,4.28h53a2.14,2.14,0,0,0,2.14-2.14V38.55a2.14,2.14,0,0,0-2.14-2.14H84.9a5.83,5.83,0,1,0-5.42,8Zm41.85,7.43a2.4,2.4,0,1,1,2.4-2.4A2.4,2.4,0,0,1,121.34,51.81ZM79.48,36.15a2.4,2.4,0,1,1-2.4,2.4A2.4,2.4,0,0,1,79.48,36.15Z" transform="translate(-35.37 -32.72)"/><path class="cls-1" d="M170.63,62.42a5.83,5.83,0,1,0,0-4.28H121.34a2.14,2.14,0,0,0-2.14,2.14v66a5.83,5.83,0,1,0,4.28,0v-9h18a14.42,14.42,0,0,1,0,28.83H112.61V49.42a2.14,2.14,0,0,0-2.14-2.14h-31a29.56,29.56,0,0,0,0,59.11h18V113h-18a36.2,36.2,0,0,1-35.76-30.9,5.82,5.82,0,1,0-4.28.31,40.48,40.48,0,0,0,40,34.86h18v28.83H65.76a5.83,5.83,0,1,0,0,4.28h31.7v6.59H46.62a5.83,5.83,0,1,0,0,4.28H97.46v6.59H84.9a5.83,5.83,0,1,0,0,4.28H97.46v10a2.14,2.14,0,0,0,2.14,2.14h10.87a2.14,2.14,0,0,0,2.14-2.14v-10h28.84a40.42,40.42,0,0,0,0-80.85h-18V62.42ZM176,57.89a2.4,2.4,0,1,1-2.4,2.4A2.4,2.4,0,0,1,176,57.89ZM41.2,74.44a2.4,2.4,0,1,1-2.4,2.4A2.4,2.4,0,0,1,41.2,74.44Zm19.14,76.18a2.4,2.4,0,1,1,2.4-2.4A2.4,2.4,0,0,1,60.34,150.62ZM41.2,161.48a2.4,2.4,0,1,1,2.4-2.4A2.4,2.4,0,0,1,41.2,161.48Zm38.28,10.86a2.4,2.4,0,1,1,2.4-2.4A2.4,2.4,0,0,1,79.48,172.35Zm18-81.1h-18a14.42,14.42,0,0,1,0-28.83h18ZM108.33,180h-6.6V60.28a2.14,2.14,0,0,0-2.14-2.14H79.48a18.69,18.69,0,1,0,0,37.39h18v6.59h-18a25.28,25.28,0,0,1,0-50.56h28.85Zm13-45.88a2.4,2.4,0,1,1,2.4-2.4A2.4,2.4,0,0,1,121.34,134.07Zm20.12,16.3a18.69,18.69,0,1,0,0-37.38h-18v-6.59h18a25.31,25.31,0,0,1,24.73,20.11,5.82,5.82,0,0,0,0,10.34A25.31,25.31,0,0,1,141.45,157H112.61v-6.59Zm27.42-16.3a2.4,2.4,0,1,1,2.4-2.4A2.4,2.4,0,0,1,168.87,134.07ZM141.45,95.53a36.15,36.15,0,0,1,0,72.29H112.61v-6.59h28.84a29.59,29.59,0,0,0,29-24,5.82,5.82,0,0,0,0-11.21,29.59,29.59,0,0,0-29-24h-18V95.53Z" transform="translate(-35.37 -32.72)"/></svg>